<svg xmlns:xlink="http://www.w3.org/1999/xlink" xmlns="http://www.w3.org/2000/svg" width="69" height="80" fill="none" aria-hidden="true" role="img"><g clip-path="url(#point_svg__clip0)" fill="none"><path d="M28.752 6.45c2.94 0 5.34 2.412 5.34 5.366 0 .603.48 1.146 1.14 1.146.6 0 1.14-.483 1.14-1.146 0-4.22-3.42-7.596-7.56-7.596-.6 0-1.14.482-1.14 1.145-.06.543.48 1.086 1.08 1.086zM58.149 21.16l8.34-8.38a7.083 7.083 0 000-10.007c-2.4-2.411-6.42-2.592-9.12-.663-2.7-1.99-6.72-1.748-9.119.663a7.083 7.083 0 000 10.008l8.34 8.38c.24.24.48.3.78.3.24 0 .539-.06.779-.3zM55.57 31.77c.9-.903 1.38-2.049 1.38-3.315s-.48-2.411-1.32-3.316c-1.5-1.507-3.96-1.688-5.76-.602-1.8-1.086-4.26-.905-5.76.602-.9.905-1.38 2.05-1.38 3.316s.48 2.412 1.38 3.316l4.98 5.004c.24.24.48.301.78.301.3 0 .6-.12.78-.301l4.92-5.004z" fill="#EEEEEE"></path><path d="M49.99 42.803c0-2.652-2.16-4.823-4.8-4.823-.96 0-1.86.302-2.64.784a4.836 4.836 0 00-4.74-3.919c-1.259 0-2.339.483-3.179 1.267-.84-1.447-2.4-2.472-4.14-2.472-.96 0-1.8.301-2.52.723v-5.546l9-9.043a11.616 11.616 0 003.36-8.199c0-3.135-1.2-6.029-3.36-8.199-2.22-2.17-5.1-3.376-8.22-3.376-2.759 0-5.339.965-7.379 2.653A11.53 11.53 0 0013.993 0c-3.12 0-6 1.206-8.16 3.376-2.219 2.23-3.359 5.124-3.359 8.26 0 3.134 1.2 6.028 3.36 8.198l12.539 12.6v16.76l-3.9-8.26c-.96-2.05-3.06-3.255-5.16-2.893a4.795 4.795 0 00-3.48 2.471 4.685 4.685 0 00-.12 4.28l10.26 22.729c2.7 6.752 9.12 11.092 16.378 11.092 9.72 0 17.699-7.957 17.699-17.784V42.803h-.06z" fill="#EEEEEE"></path><path d="M26.338 7.837c2.94 0 5.34 2.412 5.34 5.366 0 .603.479 1.145 1.139 1.145.6 0 1.14-.482 1.14-1.145 0-4.22-3.42-7.596-7.56-7.596-.6 0-1.14.482-1.14 1.145-.06.603.42 1.085 1.08 1.085zM55.675 22.607l8.339-8.38a7.083 7.083 0 000-10.007c-2.4-2.411-6.42-2.592-9.12-.663-2.699-1.93-6.779-1.748-9.178.663a7.083 7.083 0 000 10.008l8.339 8.38c.24.24.48.3.78.3.36 0 .6-.12.84-.3zm-8.34-16.82c1.8-1.808 4.98-1.808 6.72 0 .12.121.24.181.36.242.12.06.3.12.48.12s.3-.06.48-.12c.12-.06.24-.12.36-.242 1.8-1.808 4.98-1.808 6.72 0a4.783 4.783 0 010 6.753l-7.56 7.656-7.56-7.596c-1.86-1.869-1.86-4.944 0-6.813zM53.155 33.218c.9-.905 1.38-2.05 1.38-3.316s-.48-2.411-1.32-3.316c-1.5-1.507-3.96-1.688-5.76-.603-1.8-1.085-4.259-.904-5.759.603-.9.905-1.38 2.05-1.38 3.316s.48 2.411 1.38 3.316l4.98 5.004c.24.24.48.301.78.301.3 0 .6-.12.78-.301l4.92-5.004zm-10.619-3.316c0-.663.24-1.266.72-1.688.9-.904 2.46-.904 3.36 0 .42.422 1.14.422 1.62 0 .9-.904 2.46-.904 3.36 0 .42.422.66 1.025.66 1.688s-.24 1.266-.72 1.688l-4.14 4.22-4.14-4.16a2.42 2.42 0 01-.72-1.748z" fill="#0086FF"></path><path d="M47.576 44.19c0-2.653-2.16-4.823-4.8-4.823-.96 0-1.86.301-2.64.784a4.836 4.836 0 00-4.74-3.919c-1.26 0-2.34.482-3.179 1.266-.84-1.447-2.4-2.472-4.14-2.472-.96 0-1.8.302-2.52.724v-5.547l9-9.043a11.616 11.616 0 003.36-8.198c0-3.135-1.2-6.03-3.36-8.2-2.22-2.11-5.16-3.315-8.22-3.315-2.76 0-5.339.964-7.379 2.652-2.04-1.748-4.62-2.652-7.38-2.652-3.119 0-5.999 1.206-8.158 3.376C1.2 6.993 0 9.947 0 13.022c0 3.135 1.2 6.028 3.36 8.199l12.538 12.6v16.82l-3.84-8.26C11.1 40.331 9 39.126 6.9 39.488a4.795 4.795 0 00-3.48 2.471 4.684 4.684 0 00-.12 4.28l10.26 22.729c2.7 6.752 9.119 11.092 16.378 11.092 9.72 0 17.699-7.957 17.699-17.784V44.19h-.06zM4.98 19.653c-1.74-1.748-2.7-4.1-2.7-6.631 0-2.532.96-4.883 2.7-6.632 1.74-1.748 4.08-2.713 6.599-2.713 2.52 0 4.86.965 6.6 2.713.12.12.24.181.36.242.12.06.3.06.42.06.3 0 .6-.12.78-.302 1.739-1.748 4.079-2.713 6.598-2.713 2.52 0 4.86.965 6.6 2.713 1.74 1.749 2.7 4.1 2.7 6.632s-.96 4.883-2.7 6.631l-7.44 7.416v-6.752c0-2.653-2.16-4.823-4.799-4.823-2.64 0-4.8 2.17-4.8 4.823v10.308L4.98 19.654zM29.877 77.77c-6.3 0-11.939-3.798-14.278-9.706L5.278 45.275c-.3-.723-.3-1.567.06-2.29.36-.724 1.02-1.207 1.86-1.327 1.08-.181 2.22.482 2.76 1.628l6 12.9c0 .061.06.061.12.121s.06.121.18.181c.06.06.12.06.18.12.06.061.12.061.18.122.06.06.18.06.24.06s.12.06.18.06.12 0 .24-.06c.06 0 .18 0 .24-.06.06 0 .12-.06.12-.121.06-.06.12-.06.18-.12.06-.061.06-.121.12-.181s.06-.121.12-.181.06-.181.06-.242c0-.06.06-.12.06-.18V20.317c0-1.387 1.14-2.593 2.58-2.593 1.379 0 2.579 1.146 2.579 2.593V43.948c0 .603.48 1.145 1.14 1.145.6 0 1.14-.482 1.14-1.145v-4.1c0-1.386 1.14-2.592 2.52-2.592 1.38 0 2.58 1.145 2.58 2.592v4.1c0 .603.48 1.145 1.139 1.145.6 0 1.14-.482 1.14-1.145v-2.894c0-1.387 1.14-2.592 2.58-2.592 1.38 0 2.58 1.145 2.58 2.592v3.135c0 .603.48 1.145 1.14 1.145.6 0 1.14-.482 1.14-1.145 0-1.387 1.14-2.592 2.519-2.592 1.38 0 2.58 1.145 2.58 2.592v18.026c-.24 8.56-7.14 15.553-15.659 15.553z" fill="#0086FF"></path></g><defs><clipPath id="point_svg__clip0"><path fill="#fff" d="M0 0h68.454v80H0z"></path></clipPath></defs></svg>