<svg xmlns:xlink="http://www.w3.org/1999/xlink" xmlns="http://www.w3.org/2000/svg" width="72" height="66" fill="none" aria-hidden="true" role="img"><g clip-path="url(#donate_svg__clip0)" fill="none"><path d="M72 21.098c0-5.147-2.034-9.977-5.656-13.6-5.592-5.592-13.917-7.18-21.161-4.13l-7.308 2.733-7.372-2.733C23.26.318 14.997 1.906 9.405 7.498c-3.686 3.623-5.656 8.453-5.656 13.6s2.034 9.977 5.656 13.6l3.813 3.812c-1.335 1.97-1.08 4.64.636 6.355.953.953 2.287 1.462 3.558 1.462.254 0 .509-.064.763-.064-.064.254-.064.508-.064.763 0 1.334.509 2.605 1.462 3.558a4.998 4.998 0 003.558 1.462c.255 0 .572-.064.827-.064-.064.255-.064.509-.064.763 0 1.334.509 2.605 1.462 3.559a4.998 4.998 0 003.558 1.461c.255 0 .572-.063.826-.063a5.02 5.02 0 001.399 4.32c.953.954 2.287 1.462 3.558 1.462.953 0 1.907-.254 2.733-.826l1.589 1.59c.953.952 2.287 1.46 3.558 1.46s2.606-.508 3.559-1.46c.89-.89 1.334-2.034 1.462-3.242.762.381 1.588.636 2.414.636 1.271 0 2.606-.509 3.56-1.462.952-.953 1.397-2.097 1.46-3.304.7.317 1.399.508 2.161.508a4.998 4.998 0 003.559-1.462 4.998 4.998 0 001.462-3.558c0-.763-.191-1.525-.509-2.161a4.954 4.954 0 003.305-1.462 4.998 4.998 0 001.461-3.558 4.998 4.998 0 00-1.461-3.559l-2.86-2.86 4.067-4.067C69.967 31.075 72 26.245 72 21.098z" fill="#EEEEEE"></path><path d="M68.25 19.319c0-5.148-2.033-9.977-5.655-13.6C57.003.064 48.74-1.525 41.433 1.525l-7.308 2.796-7.371-2.796C19.509-1.525 11.248.064 5.656 5.655A19.173 19.173 0 000 19.32c0 5.147 2.034 9.977 5.656 13.599l3.813 3.813c-1.335 1.97-1.08 4.639.635 6.355.953.953 2.288 1.461 3.559 1.461.254 0 .508-.063.762-.063-.063.254-.063.508-.063.762 0 1.335.508 2.606 1.461 3.559a4.998 4.998 0 003.56 1.462c.253 0 .571-.064.825-.064-.063.254-.063.508-.063.763 0 1.334.508 2.605 1.461 3.558a4.998 4.998 0 003.559 1.462c.254 0 .572-.064.826-.064a5.021 5.021 0 001.398 4.322c.954.953 2.288 1.461 3.559 1.461.953 0 1.906-.254 2.733-.826l1.588 1.589c.953.953 2.288 1.461 3.559 1.461 1.27 0 2.605-.508 3.559-1.461.89-.89 1.334-2.034 1.461-3.241.763.381 1.589.635 2.415.635 1.271 0 2.605-.508 3.559-1.461.953-.954 1.398-2.097 1.461-3.305.7.318 1.398.509 2.161.509a4.998 4.998 0 003.559-1.462 4.998 4.998 0 001.461-3.559c0-.762-.19-1.525-.508-2.16a4.954 4.954 0 003.304-1.462 4.998 4.998 0 001.462-3.559 4.998 4.998 0 00-1.462-3.558l-2.86-2.86 4.068-4.067c3.75-3.622 5.783-8.452 5.783-13.6zM11.503 41.75a3.107 3.107 0 010-4.385l11.375-11.438c1.144-1.144 3.178-1.144 4.385 0 .572.572.89 1.334.89 2.16 0 .826-.318 1.589-.89 2.16l-11.439 11.44c-1.207 1.207-3.177 1.207-4.32.063zm10.104 5.72c-1.144 1.143-3.177 1.143-4.385 0a3.026 3.026 0 01-.89-2.161c0-.826.319-1.589.89-2.16h.064L28.66 31.773l3.877-3.876a3.107 3.107 0 014.384 0 3.107 3.107 0 010 4.384l-3.876 3.877-11.057 10.867-.318.317c0 .064-.064.064-.064.127zm1.398 5.719a3.026 3.026 0 01-.89-2.16c0-.827.319-1.526.827-2.098l.445-.445 1.08-1.08 9.913-9.914c1.144-1.144 3.178-1.144 4.385 0a3.107 3.107 0 010 4.385l-7.054 6.99-4.32 4.322c-1.145 1.144-3.242 1.144-4.386 0zm5.783 5.72a3.107 3.107 0 010-4.386v-.063l4.258-4.258c1.144-1.144 3.177-1.144 4.385 0a3.107 3.107 0 010 4.385l-4.385 4.385c-1.144 1.144-3.05 1.08-4.258-.064zm12.265 2.287a3.107 3.107 0 01-4.385 0l-1.525-1.525 3.686-3.686c.254-.254.445-.508.635-.763l1.59 1.589c.571.572.889 1.335.889 2.16 0 .827-.318 1.653-.89 2.225zm7.372-4.13a3.107 3.107 0 01-4.385 0l-1.652-1.653-2.225-2.224a5.018 5.018 0 00-1.398-4.385c-.826-.826-1.906-1.271-2.986-1.398l3.685-3.686.382.381 1.207 1.208 7.372 7.435a3.03 3.03 0 010 4.321zm12.392-13.664c0 .827-.318 1.589-.89 2.161-1.144 1.144-3.178 1.144-4.385 0l-11.82-11.82a.997.997 0 00-1.398 0 .997.997 0 000 1.398l3.304 3.305 9.978 9.977c.572.572.89 1.334.89 2.16 0 .826-.319 1.589-.89 2.16-1.144 1.145-3.178 1.145-4.385 0l-9.914-9.913-.508-.508c1.207-1.97 1.017-4.575-.7-6.291-.825-.826-1.906-1.271-2.986-1.398l1.144-1.144a5.025 5.025 0 000-7.118 5.025 5.025 0 00-7.117 0l-1.08 1.08c-.128-1.08-.636-2.16-1.399-2.922-1.906-1.907-5.21-1.907-7.117 0l-10.74 10.74-3.75-3.75A17.31 17.31 0 011.97 19.255c0-4.639 1.78-8.96 5.084-12.265 5.02-4.956 12.455-6.418 19-3.622l5.212 1.97-15.57 5.846c-1.461.572-2.605 1.716-3.05 3.241a5.079 5.079 0 00.763 4.449c.953 1.334 2.478 2.033 4.067 2.033.635 0 1.27-.127 1.906-.317l8.77-3.305c2.923-1.08 6.291-.699 8.388.953.382.318.763.509 1.144.763l22.178 22.178c.636.636.953 1.398.953 2.224zm-3.686-7.816L41.75 20.272c.254 0 .445.063.7.063 1.143 0 2.223-.19 3.367-.635 2.796-1.08 4.957-3.432 5.783-6.291.127-.509-.127-1.08-.699-1.208-.508-.127-1.08.127-1.207.7-.636 2.287-2.352 4.193-4.576 5.02-2.478.953-5.21.508-7.308-1.144-2.605-2.034-6.482-2.606-9.977-1.398h-.127l-8.96 3.368c-1.335.508-2.924.063-3.686-1.017-.572-.826-.763-1.78-.445-2.733.254-.953.953-1.652 1.843-1.97l25.673-9.659C48.678.572 56.113 2.034 61.133 7.054a17.31 17.31 0 015.084 12.265c0 4.639-1.78 8.96-5.084 12.264l-4.003 4.004z" fill="#0086FF"></path></g><defs><clipPath id="donate_svg__clip0"><path fill="#fff" d="M0 0h72v65.899H0z"></path></clipPath></defs></svg>