<svg xmlns:xlink="http://www.w3.org/1999/xlink" xmlns="http://www.w3.org/2000/svg" width="72" height="72" fill="none" aria-hidden="true" role="img"><g clip-path="url(#money_svg__clip0)" fill="none"><path d="M4.565 50.834l27.159 20.125c.924.694 2.022 1.099 3.178 1.099.231 0 .462 0 .694-.058l21.669-2.95c1.213-.173 2.485.116 3.525.752a3.846 3.846 0 002.947.694 3.62 3.62 0 002.485-1.677l5.142-7.923c1.156-1.735.636-4.106-1.098-5.204l-13.463-8.964a10.765 10.765 0 00-7.05-1.62l-24.501 3.123-8.263-5.84c-1.85-1.389-4.392-1.33-6.183 0a5.094 5.094 0 00-3.872-.926c-1.387.174-2.6.925-3.467 2.024-1.676 2.313-1.213 5.61 1.098 7.345zM39.352 1.908c-10.748 0-19.474 8.79-19.474 19.49 0 10.756 8.726 19.489 19.474 19.489s19.473-8.733 19.473-19.49c0-10.698-8.725-19.489-19.473-19.489z" fill="#EEEEEE"></path><path d="M2.138 48.925l27.159 20.126c.924.694 2.022 1.098 3.178 1.098.231 0 .462 0 .694-.057l21.669-2.95c1.213-.173 2.485.116 3.525.752a3.846 3.846 0 002.947.694 3.62 3.62 0 002.484-1.677l5.143-7.923c1.156-1.735.636-4.106-1.097-5.205l-13.522-9.022a10.764 10.764 0 00-7.05-1.619l-24.5 3.123-8.206-5.783c-1.85-1.388-4.392-1.33-6.183 0a5.095 5.095 0 00-3.872-.925c-1.387.23-2.6.925-3.41 2.081-1.79 2.256-1.328 5.552 1.041 7.287zm11.21-6.824l6.992 4.974c-.404.231-.75.52-1.04.867-3.236-1.966-6.356-4.106-9.188-6.188 1.04-.462 2.254-.347 3.236.347zm-10.69.694c.52-.694 1.271-1.157 2.08-1.272.867-.116 1.676.058 2.37.578.173.116.346.29.52.405 3.178 2.429 6.76 4.858 10.516 7.171-.288.81-.462 1.677-.346 2.602.404 2.892 3.062 4.858 5.894 4.511l5.952-.81c4.218 1.967 9.65 4.165 13.232 4.165.347 0 .636-.058.925-.058h.115c1.04-.174 1.965-.694 2.6-1.562a4.191 4.191 0 00.81-2.95c-.116-1.04-.694-2.023-1.56-2.66a4.183 4.183 0 00-2.947-.809l-19.474 2.66c-1.733.232-3.351-.983-3.64-2.718-.231-1.735.982-3.354 2.716-3.585l24.905-3.181a8.851 8.851 0 015.663 1.272L66.51 55.46c.81.52 1.04 1.62.52 2.43l-5.142 7.922c-.29.405-.694.694-1.156.752-.462.058-.982 0-1.387-.347-1.444-.925-3.236-1.33-4.912-1.099l-21.669 2.95c-.867.115-1.676-.116-2.37-.637L3.237 47.306c-1.33-1.099-1.618-3.123-.578-4.51zm40.565 11.277c1.098-.115 2.08.636 2.254 1.677.058.52-.058 1.041-.405 1.446-.347.405-.809.694-1.329.752-1.907.347-5.547-.636-10.228-2.602l9.708-1.273zM36.867 0C26.119 0 17.393 8.733 17.393 19.49c0 10.756 8.726 19.488 19.474 19.488S56.34 30.246 56.34 19.49C56.398 8.733 47.615 0 36.867 0zm0 36.954c-9.65 0-17.451-7.865-17.451-17.465 0-9.658 7.858-17.465 17.45-17.465 9.65 0 17.452 7.865 17.452 17.465 0 9.658-7.801 17.465-17.451 17.465z" fill="#0086FF"></path><path d="M36.867 11.624c1.907 0 3.409 1.561 3.409 3.412 0 .578.462 1.041 1.04 1.041.578 0 1.04-.463 1.04-1.04 0-2.661-1.907-4.917-4.45-5.38V5.842c0-.578-.461-1.041-1.04-1.041-.577 0-1.04.463-1.04 1.041v3.817c-2.542.463-4.449 2.718-4.449 5.378 0 3.007 2.427 5.494 5.49 5.494 1.907 0 3.409 1.562 3.409 3.412 0 1.85-1.56 3.412-3.41 3.412-1.906 0-3.409-1.561-3.409-3.412 0-.578-.462-1.04-1.04-1.04-.578 0-1.04.462-1.04 1.04 0 2.66 1.907 4.916 4.45 5.378v3.817c0 .579.462 1.041 1.04 1.041.578 0 1.04-.462 1.04-1.04V29.32c2.542-.463 4.45-2.719 4.45-5.379 0-3.007-2.428-5.494-5.49-5.494-1.907 0-3.41-1.561-3.41-3.412 0-1.85 1.56-3.412 3.41-3.412z" fill="#0086FF"></path></g><defs><clipPath id="money_svg__clip0"><path fill="#fff" d="M0 0h72v72H0z"></path></clipPath></defs></svg>