<svg xmlns:xlink="http://www.w3.org/1999/xlink" xmlns="http://www.w3.org/2000/svg" width="48" height="81" fill="none" aria-hidden="true" role="img"><g clip-path="url(#mobile_svg__clip0)" fill="none"><path d="M9.614 2.72c-3.819 0-6.887 3.129-6.887 6.937V74.131c0 3.808 3.137 6.937 6.955 6.937h31.5c3.818 0 6.954-3.129 6.954-6.937V9.657C48 5.85 44.932 2.72 41.114 2.72h-31.5z" fill="#EEEEEE"></path><path d="M21.886 51.824c.205.204.546.34.819.34.272 0 .613-.136.818-.34l9.818-9.794c3.136-3.128 3.136-8.229 0-11.425-2.932-2.925-7.432-3.06-10.637-.68-3.136-2.449-7.704-2.245-10.636.68-3.136 3.128-3.136 8.229 0 11.425l9.818 9.794zm-8.25-19.587c2.182-2.177 6-2.177 8.182 0 .477.476 1.16.476 1.636 0 2.182-2.177 6-2.177 8.182 0 2.25 2.244 2.25 5.917 0 8.161l-9 9.045-9-9.045c-2.25-2.244-2.25-5.917 0-8.161z" fill="#0086FF"></path><path d="M26.454 34.345a3.124 3.124 0 013.137 3.129c0 .612.477 1.156 1.159 1.156.614 0 1.16-.476 1.16-1.157 0-2.992-2.456-5.44-5.456-5.44-.613 0-1.159.476-1.159 1.156 0 .612.546 1.156 1.16 1.156z" fill="#0086FF"></path><path d="M6.955 0C3.136 0 0 3.128 0 6.937v64.474c0 3.808 3.136 6.937 6.955 6.937h31.5c3.818 0 6.954-3.129 6.954-6.937V6.869C45.341 3.129 42.205 0 38.386 0H6.955zM43.09 64.746H2.25V13.534h40.773v51.212h.068zm-4.705 11.29H6.955a4.635 4.635 0 01-4.637-4.625v-4.353h40.773v4.353c0 2.516-2.114 4.624-4.705 4.624zm4.705-69.099v4.353H2.25V6.937c0-2.584 2.114-4.625 4.636-4.625h31.5c2.591-.068 4.705 2.04 4.705 4.625z" fill="#0086FF"></path><path d="M26.318 70.118h-7.295c-.614 0-1.16.477-1.16 1.157 0 .612.478 1.156 1.16 1.156h7.227c.614 0 1.16-.476 1.16-1.156 0-.68-.478-1.157-1.092-1.157z" fill="#0086FF"></path></g><defs><clipPath id="mobile_svg__clip0"><path fill="#fff" d="M0 0h48v81H0z"></path></clipPath></defs></svg>